<?xml version="1.0" encoding="UTF-8"?>
<!DOCTYPE svg PUBLIC "-//W3C//DTD SVG 1.1//EN" "http://www.w3.org/Graphics/SVG/1.1/DTD/svg11.dtd">
<!-- Creator: CorelDRAW 2020 (64-Bit) -->
<svg xmlns="http://www.w3.org/2000/svg" xml:space="preserve" width="130px" height="50px" version="1.1" style="shape-rendering:geometricPrecision; text-rendering:geometricPrecision; image-rendering:optimizeQuality; fill-rule:evenodd; clip-rule:evenodd"
viewBox="0 0 128.34 49.36"
 xmlns:xlink="http://www.w3.org/1999/xlink"
 xmlns:xodm="http://www.corel.com/coreldraw/odm/2003">
 <defs>
  <style type="text/css">
   <![CDATA[
    .fil2 {fill:none}
    .fil0 {fill:#FEFEFE;fill-rule:nonzero}
    .fil1 {fill:#373435;fill-rule:nonzero}
   ]]>
  </style>
 </defs>
 <g id="Capa_x0020_1">
  <metadata id="CorelCorpID_0Corel-Layer"/>
  <path class="fil0" d="M14.77 32.91l-3.04 0 0 -17.72c0,-0.49 0.33,-0.82 0.82,-0.82l0.74 0 0 -0.3 -7.22 0 0 0.3 0.74 0c0.49,0 0.82,0.33 0.82,0.82l0 16.9c0,0.49 -0.33,0.82 -0.82,0.82l-0.74 0 0 0.3 12.74 0 1.32 -4.08 -0.3 -0.11 -0.06 0.17c-0.6,1.5 -2.82,3.72 -5,3.72z"/>
  <path id="1" class="fil0" d="M29.89 33.15c-3.04,-0.02 -4.54,-3.36 -4.54,-9.45 0,-6.1 1.5,-9.44 4.54,-9.44 3.03,0 4.53,3.34 4.53,9.44 0,6.09 -1.5,9.45 -4.53,9.45zm0 0.31c5.96,0 8.91,-4.9 8.91,-9.76 0,-4.87 -2.95,-9.74 -8.91,-9.74 -5.96,0 -8.92,4.87 -8.92,9.74 0,4.86 2.96,9.76 8.92,9.76z"/>
  <path id="2" class="fil0" d="M54.6 27.79c0,6.02 -9.02,6.02 -9.02,0l0 -12.6c0,-0.49 0.33,-0.82 0.82,-0.82l0.74 0 0 -0.3 -7.22 0 0 0.3 0.74 0c0.49,0 0.82,0.33 0.82,0.82l0 12.6c0,7.61 13.42,7.61 13.42,0l0 -11.5c0,-0.77 0.6,-1.92 1.64,-1.92l0.38 0 0 -0.3 -4.42 0 0 0.3 0.46 0c1.04,0 1.64,1.15 1.64,1.92l0 11.5z"/>
  <path id="3" class="fil0" d="M68.73 33.21l6.05 0 0 -0.3 -0.74 0c-0.49,0 -1.12,-0.14 -1.37,-0.82l-1.83 -5.25c-0.52,-1.53 -2.11,-2.13 -3.58,-2.35 3.66,-0.64 5,-2.88 5,-5.13 0,-2.66 -1.86,-5.29 -7.19,-5.29l-7.03 0 0 0.3 0.74 0c0.5,0 0.82,0.33 0.82,0.82l0 16.9c0,0.49 -0.32,0.82 -0.82,0.82l-0.74 0 0 0.3 7.22 0 0 -0.3 -0.74 0c-0.49,0 -0.82,-0.33 -0.82,-0.82l0 -7.44 0.8 0c0.71,0 1.31,0.22 1.61,1.07l2.62 7.49zm-5.03 -8.86l0 -9.16 0 -0.82 1.07 0c2.08,0 3.12,2.5 3.12,4.99 0,2.39 -0.96,4.77 -2.85,4.96 -0.21,0 -0.38,0.03 -0.54,0.03l-0.8 0z"/>
  <path id="4" class="fil0" d="M77.18 32.09c0,0.49 -0.33,0.82 -0.82,0.82l-0.74 0 0 0.3 4.38 0 4.02 0c5.38,0 8.03,-4.79 8.03,-9.56 0,-4.79 -2.65,-9.58 -8.03,-9.58l-8.4 0 0 0.3 0.74 0c0.49,0 0.82,0.33 0.82,0.82l0 16.9zm4.1 0.82l0 -18.54 1.62 0c3.19,0 4.78,4.08 4.78,9.28 0,5.18 -1.59,9.26 -4.78,9.26l-1.62 0z"/>
  <path id="5" class="fil0" d="M94.73 32.09c0,0.49 -0.33,0.82 -0.82,0.82l-0.74 0 0 0.3 2.27 0 10.47 0 1.32 -4.07 -0.3 -0.11 -0.06 0.16c-0.6,1.5 -2.81,3.72 -5,3.72l-3.04 0 0 -11.13 3.09 0c0.77,0 1.92,0.6 1.92,1.64l0 0.38 0.3 0 0 -4.44 -0.3 0 0 0.47c0,1.04 -1.15,1.65 -1.92,1.65l-3.09 0 0 -7.11 2.49 0c2.19,0 4.13,1.67 4.73,3.18l0.06 0.14 0.3 -0.11 -1.04 -3.51 -12.2 0 0 0.3 0.74 0c0.49,0 0.82,0.33 0.82,0.82l0 16.9z"/>
  <path id="6" class="fil0" d="M118.87 20.25c1.21,0 2.22,-1.01 2.22,-2.24 0,-2.65 -3.72,-4.05 -6.15,-4.05 -3.31,0 -6.56,1.86 -6.56,5.01 0,6.15 10.38,5.33 10.38,10.25 0,2.51 -2.29,3.63 -4.64,3.63 -1.81,0 -3.64,-0.62 -4.57,-1.8 0.3,0.16 0.66,0.25 1.01,0.25 1.21,0 2.22,-1.02 2.22,-2.22 0,-1.23 -1.01,-2.21 -2.24,-2.21 -1.21,0 -2.19,0.98 -2.19,2.21 0,2.95 3.94,4.38 6.34,4.38 3.69,0 7.57,-2.11 7.57,-5.94 0,-6.59 -10.47,-5.68 -10.47,-10.17 0,-1.99 1.73,-2.92 3.67,-2.92 1.69,0 3,0.52 4.1,1.5 -0.22,-0.08 -0.44,-0.14 -0.71,-0.14 -1.21,0 -2.19,1.02 -2.19,2.25 0,1.2 0.98,2.21 2.21,2.21z"/>
  <g id="_2000156959616">
   <path class="fil1" d="M81.09 44.24c0.85,-0.74 1.57,-1.39 2.18,-1.95 0.6,-0.55 1.08,-0.98 1.42,-1.3 0.35,-0.32 0.65,-0.59 0.92,-0.81 0.26,-0.22 0.43,-0.33 0.5,-0.33 0.14,-0.01 0.28,0.14 0.4,0.44 0.13,0.29 0.2,0.53 0.2,0.71 0,0.11 -0.2,0.39 -0.58,0.82 -0.4,0.43 -0.69,0.77 -0.88,1.03 -0.19,0.26 -0.29,0.53 -0.29,0.81 0,0.16 0.06,0.29 0.17,0.39 0.11,0.11 0.24,0.16 0.39,0.16 0.18,0 0.39,-0.1 0.64,-0.28 0.25,-0.18 0.64,-0.51 1.17,-0.98l0 0.65c-0.53,0.5 -1.02,0.94 -1.45,1.3 -0.43,0.37 -0.81,0.64 -1.13,0.82 -0.33,0.18 -0.59,0.27 -0.81,0.27 -0.19,0 -0.35,-0.07 -0.47,-0.22 -0.13,-0.14 -0.2,-0.32 -0.2,-0.53 0,-0.21 0.04,-0.42 0.11,-0.64 0.08,-0.21 0.19,-0.46 0.34,-0.76 0.15,-0.29 0.36,-0.65 0.61,-1.06 0.25,-0.41 0.48,-0.79 0.69,-1.13 -0.63,0.5 -1.18,0.99 -1.66,1.47 -0.49,0.47 -0.88,0.88 -1.19,1.23 -0.3,0.35 -0.54,0.63 -0.72,0.83 -0.34,0.38 -0.66,0.57 -0.95,0.57 -0.32,0 -0.48,-0.22 -0.48,-0.68 0,-0.18 0.12,-0.51 0.36,-0.99 0.24,-0.47 0.57,-1.07 1.01,-1.81 0.04,-0.05 0.06,-0.13 0.06,-0.23 0,-0.12 -0.06,-0.18 -0.18,-0.18 -0.14,0 -0.33,0.13 -0.59,0.38 -0.25,0.25 -0.74,0.78 -1.47,1.59 -0.2,0.23 -0.43,0.53 -0.68,0.89 -0.26,0.36 -0.44,0.61 -0.55,0.73 -0.11,0.12 -0.22,0.18 -0.33,0.18 -0.22,0 -0.42,-0.2 -0.61,-0.59 -0.19,-0.39 -0.29,-0.84 -0.29,-1.36 0,-0.38 0.07,-0.71 0.19,-0.99 0.13,-0.27 0.32,-0.61 0.59,-1.02 0.41,-0.6 0.74,-1.02 1,-1.27 0.26,-0.26 0.53,-0.38 0.82,-0.38 0.18,0 0.33,0.03 0.45,0.1 0.12,0.07 0.18,0.17 0.18,0.29 0,0.13 -0.11,0.34 -0.33,0.63 -0.22,0.29 -0.51,0.6 -0.85,0.91 -0.18,0.18 -0.36,0.39 -0.52,0.65 -0.17,0.26 -0.25,0.45 -0.25,0.57 0,0.16 0.07,0.25 0.19,0.25 0.11,0 0.37,-0.22 0.79,-0.65 0.42,-0.43 0.89,-0.89 1.39,-1.39 0.5,-0.51 0.97,-0.93 1.4,-1.26 0.43,-0.33 0.8,-0.5 1.1,-0.5 0.18,0 0.33,0.07 0.45,0.21 0.12,0.14 0.18,0.31 0.18,0.51 0,0.13 -0.09,0.37 -0.28,0.72 -0.18,0.36 -0.45,0.79 -0.8,1.31 -0.35,0.51 -0.8,1.14 -1.36,1.87z"/>
   <path id="1" class="fil1" d="M93.16 42.97l0 0.61c-0.4,0.37 -0.73,0.61 -0.97,0.74 -0.24,0.12 -0.59,0.17 -1.05,0.14 -0.8,0.94 -1.5,1.42 -2.1,1.42 -0.35,0 -0.66,-0.12 -0.94,-0.34 -0.28,-0.23 -0.51,-0.54 -0.67,-0.93 -0.17,-0.39 -0.26,-0.83 -0.26,-1.31 0,-0.39 0.13,-0.83 0.39,-1.3 0.26,-0.48 0.6,-0.92 1.01,-1.34 0.41,-0.41 0.86,-0.74 1.33,-0.99 0.47,-0.26 0.91,-0.39 1.31,-0.39 0.29,0 0.51,0.05 0.68,0.13 0.16,0.1 0.24,0.22 0.24,0.38 0,0.12 -0.07,0.26 -0.21,0.42 0.24,0.05 0.4,0.13 0.48,0.24 0.08,0.11 0.13,0.32 0.13,0.62 0,0.3 -0.07,0.67 -0.21,1.11 -0.14,0.45 -0.32,0.86 -0.56,1.26l0.16 0.16 0.14 0c0.11,0 0.21,-0.03 0.31,-0.08 0.1,-0.05 0.19,-0.1 0.27,-0.16 0.08,-0.06 0.25,-0.19 0.52,-0.39zm-1.89 -2.41c-0.5,0.3 -0.94,0.58 -1.3,0.83 -0.36,0.25 -0.66,0.5 -0.92,0.75 -0.25,0.26 -0.41,0.51 -0.5,0.77 -0.15,0.68 -0.23,1.05 -0.23,1.1 0,0.41 0.28,0.61 0.85,0.61 0.26,0 0.7,-0.23 1.32,-0.68 -0.11,-0.29 -0.16,-0.56 -0.16,-0.82 0,-0.39 0.08,-0.78 0.24,-1.18 0.16,-0.4 0.39,-0.86 0.7,-1.38z"/>
   <path id="2" class="fil1" d="M97.53 42.88l0 0.68c-1.28,1.7 -2.32,2.54 -3.12,2.54 -0.43,0 -0.77,-0.24 -1.02,-0.71 -0.25,-0.47 -0.37,-1.09 -0.37,-1.86 0,-0.63 0.14,-1.37 0.44,-2.23 0.29,-0.86 0.68,-1.73 1.17,-2.61 0.5,-0.88 1.01,-1.65 1.54,-2.31 0.52,-0.66 1.02,-1.12 1.47,-1.38 0.18,-0.11 0.33,-0.17 0.43,-0.17 0.13,0 0.21,0.06 0.26,0.17 0.04,0.11 0.06,0.31 0.06,0.58 0,0.85 -0.35,1.9 -1.04,3.14 -0.69,1.23 -1.65,2.5 -2.89,3.79 -0.06,0.32 -0.09,0.56 -0.09,0.73 0,0.39 0.08,0.71 0.25,0.96 0.17,0.24 0.4,0.36 0.7,0.36 0.16,0 0.32,-0.06 0.5,-0.18 0.18,-0.12 0.36,-0.27 0.56,-0.44 0.2,-0.18 0.58,-0.53 1.15,-1.06zm-2.75 -1.64c0.32,-0.32 0.63,-0.67 0.93,-1.07 0.29,-0.39 0.57,-0.82 0.84,-1.27 0.26,-0.45 0.47,-0.86 0.62,-1.22 0.15,-0.36 0.22,-0.63 0.22,-0.82 0,-0.14 -0.05,-0.21 -0.14,-0.21 -0.04,0 -0.11,0.04 -0.21,0.1 -0.38,0.31 -0.8,0.91 -1.27,1.8 -0.46,0.88 -0.79,1.78 -0.99,2.69z"/>
   <path id="3" class="fil1" d="M101.21 38.89c-0.15,0 -0.3,-0.06 -0.44,-0.18 -0.13,-0.11 -0.2,-0.26 -0.2,-0.43 0,-0.27 0.13,-0.57 0.38,-0.91 0.26,-0.32 0.53,-0.49 0.8,-0.49 0.18,0 0.34,0.06 0.46,0.17 0.12,0.11 0.18,0.28 0.18,0.49 0,0.26 -0.13,0.55 -0.38,0.87 -0.25,0.32 -0.52,0.48 -0.8,0.48zm0.62 4.1l0 0.67c-0.59,0.76 -1.15,1.34 -1.66,1.73 -0.51,0.39 -0.95,0.58 -1.31,0.58 -0.5,0 -0.88,-0.26 -1.12,-0.79 -0.24,-0.52 -0.37,-1.1 -0.37,-1.72 0,-0.24 0.03,-0.47 0.08,-0.69 0.05,-0.22 0.11,-0.39 0.17,-0.53 0.07,-0.14 0.2,-0.36 0.38,-0.66 0.87,-1.36 1.66,-2.03 2.38,-2.03 0.37,0 0.56,0.14 0.56,0.43 0,0.19 -0.12,0.5 -0.36,0.92 -0.24,0.41 -0.46,0.71 -0.64,0.89 -0.54,0.51 -0.89,0.87 -1.04,1.07 -0.17,0.2 -0.25,0.43 -0.25,0.69 0,0.22 0.08,0.4 0.25,0.55 0.16,0.15 0.38,0.22 0.64,0.22 0.29,0 0.61,-0.11 0.95,-0.32 0.34,-0.21 0.79,-0.55 1.34,-1.01z"/>
   <path id="4" class="fil1" d="M107.93 41.33c-1.08,1.2 -1.61,2.03 -1.61,2.5 0,0.27 0.1,0.4 0.32,0.4 0.17,0 0.4,-0.1 0.69,-0.29 0.28,-0.18 0.73,-0.51 1.33,-0.99l0 0.63c-0.86,0.86 -1.53,1.48 -1.99,1.86 -0.47,0.38 -0.85,0.57 -1.14,0.57 -0.51,0 -0.75,-0.33 -0.75,-0.99 0,-0.2 0.03,-0.39 0.08,-0.58 0.07,-0.19 0.15,-0.39 0.26,-0.59 0.11,-0.21 0.27,-0.5 0.49,-0.88 0.22,-0.39 0.47,-0.82 0.76,-1.3 -0.35,0.18 -0.78,0.53 -1.31,1.05 -0.34,0.33 -0.63,0.65 -0.87,0.94 -0.24,0.3 -0.5,0.63 -0.77,0.99 -0.27,0.37 -0.47,0.61 -0.6,0.74 -0.12,0.12 -0.25,0.19 -0.37,0.19 -0.2,0 -0.38,-0.21 -0.55,-0.62 -0.16,-0.41 -0.24,-0.89 -0.24,-1.43 0,-0.34 0.03,-0.6 0.11,-0.79 0.08,-0.19 0.23,-0.46 0.46,-0.81 0.42,-0.65 0.78,-1.12 1.09,-1.42 0.3,-0.31 0.6,-0.46 0.88,-0.46 0.19,0 0.35,0.04 0.47,0.1 0.12,0.07 0.18,0.17 0.18,0.31 0,0.07 -0.02,0.13 -0.06,0.2 -0.03,0.07 -0.07,0.13 -0.12,0.18 -0.05,0.06 -0.14,0.17 -0.29,0.32 -0.96,1.07 -1.45,1.77 -1.45,2.08 0,0.18 0.06,0.27 0.18,0.27 0.07,0 0.21,-0.12 0.42,-0.35 0.21,-0.24 0.49,-0.55 0.82,-0.93 0.33,-0.38 0.73,-0.78 1.18,-1.2 0.46,-0.41 0.98,-0.81 1.55,-1.2 0.33,-0.23 0.6,-0.34 0.81,-0.34 0.1,0 0.2,0.13 0.29,0.4 0.1,0.27 0.14,0.55 0.14,0.82 0,0.14 -0.13,0.34 -0.39,0.62z"/>
   <path id="5" class="fil1" d="M109.68 41.35c0.93,-0.85 1.83,-1.47 2.71,-1.89 0.87,-0.41 1.55,-0.61 2.02,-0.61 0.13,0 0.25,0.06 0.36,0.16 0.11,0.11 0.2,0.23 0.26,0.37 0.07,0.14 0.1,0.25 0.1,0.32 0,0.11 -0.04,0.19 -0.13,0.24 -0.08,0.05 -0.23,0.11 -0.45,0.19 0.05,0.1 0.1,0.22 0.17,0.38 0.07,0.14 0.12,0.27 0.15,0.36 0.04,0.1 0.06,0.18 0.06,0.26 0,0.14 -0.15,0.42 -0.45,0.82 -0.29,0.4 -0.5,0.69 -0.62,0.88 -0.12,0.19 -0.18,0.43 -0.18,0.7 0,0.45 0.21,0.68 0.62,0.68 0.43,0 1.1,-0.4 2.01,-1.2l0 0.56c-1.54,1.72 -2.65,2.57 -3.32,2.57 -0.24,0 -0.41,-0.08 -0.51,-0.23 -0.1,-0.16 -0.15,-0.39 -0.15,-0.69 0,-0.49 0.17,-1.18 0.53,-2.1 -0.9,0.99 -1.56,1.69 -2,2.11 -0.43,0.42 -0.79,0.63 -1.07,0.63 -0.13,0 -0.3,-0.12 -0.5,-0.35 -0.2,-0.23 -0.38,-0.53 -0.54,-0.9 -0.16,-0.37 -0.23,-0.76 -0.23,-1.15 0,-0.29 0.02,-0.53 0.08,-0.72 0.05,-0.2 0.16,-0.4 0.32,-0.6 0.16,-0.2 0.41,-0.46 0.76,-0.79zm4.4 -1.01c-1.59,0.72 -2.73,1.34 -3.4,1.85 -0.68,0.51 -1.02,1.03 -1.02,1.57 0,0.19 0.04,0.36 0.1,0.48 0.07,0.13 0.16,0.19 0.28,0.19 0.07,0 0.18,-0.04 0.35,-0.13 0.65,-0.38 1.24,-0.87 1.77,-1.48 0.53,-0.61 1.17,-1.44 1.92,-2.48z"/>
   <path class="fil1" d="M46.28 40.2c5.66,-0.1 11.32,-0.07 16.96,-0.03 2.74,0.01 5.48,0.02 8.21,0.03 2.73,0 5.46,-0.02 8.18,-0.06l0 0.89c-5.44,0.08 -10.91,0.05 -16.39,0.02 -5.64,-0.03 -11.3,-0.06 -16.96,0.04l0 -0.89z"/>
  </g>
  <rect class="fil2" width="128.34" height="49.36"/>
 </g>
</svg>
